# xmcd
#
# Track frame offsets: 
#        150
#        20053
#        33623
#        46776
#        65248
#        88391
#        106671
#        123829
#        143719
#        159011
#        174990
#
# Disc length: 2651 seconds
#
# Revision: 0
# Processed by: cddbd v1.5.2PL0 Copyright (c) Steve Scherf et al.
# Submitted via: ExactAudioCopyFreeDBPlugin 1.0
#
DISCID=8b0a590b
DTITLE=Bullington, Ben - Ben Bullington
DYEAR=2013
DGENRE=Country
TTITLE0=Appalachian Mtn Delta Blues
TTITLE1=Maybe There's a Future for a Cowboy
TTITLE2=Country Music (I'm Talkin' to You)
TTITLE3=His Chosen Time
TTITLE4=I've Got To Leave You Now
TTITLE5=Here's to Hopin'
TTITLE6=The WIldest Girl I Know
TTITLE7=Heartbreak in Your Arms
TTITLE8=The Daily Bleed
TTITLE9=Wild Oats
TTITLE10=The Last Adios
EXTD=
EXTT0=
EXTT1=
EXTT2=
EXTT3=
EXTT4=
EXTT5=
EXTT6=
EXTT7=
EXTT8=
EXTT9=
EXTT10=
PLAYORDER=
